{
  "asset": {
    "version": "2.0",
    "generator": "THREE.GLTFExporter r180"
  },
  "scenes": [
    {
      "name": "AuxScene",
      "nodes": [
        0
      ]
    }
  ],
  "scene": 0,
  "nodes": [
    {
      "matrix": [
        1,
        0,
        0,
        0,
        0,
        1,
        0,
        0,
        0,
        0,
        1,
        0,
        0,
        -98.51804828643799,
        -3.1352996826171875,
        1
      ],
      "extras": {
        "unitScaleFactor": 1
      },
      "children": [
        1
      ]
    },
    {
      "name": "MonsterCyclopscyclop",
      "extras": {
        "originalName": "MonsterCyclops:cyclop",
        "transformData": {
          "inheritType": 1,
          "eulerOrder": "ZYX",
          "parentMatrix": {
            "elements": [
              1,
              0,
              0,
              0,
              0,
              1,
              0,
              0,
              0,
              0,
              1,
              0,
              0,
              -98.51804828643799,
              -3.1352996826171875,
              1
            ]
          },
          "parentMatrixWorld": {
            "elements": [
              1,
              0,
              0,
              0,
              0,
              1,
              0,
              0,
              0,
              0,
              1,
              0,
              0,
              0,
              0,
              1
            ]
          }
        }
      },
      "mesh": 0
    }
  ],
  "bufferViews": [
    {
      "buffer": 0,
      "byteOffset": 0,
      "byteLength": 85824,
      "target": 34962,
      "byteStride": 12
    },
    {
      "buffer": 0,
      "byteOffset": 85824,
      "byteLength": 85824,
      "target": 34962,
      "byteStride": 12
    },
    {
      "buffer": 0,
      "byteOffset": 171648,
      "byteLength": 57216,
      "target": 34962,
      "byteStride": 8
    }
  ],
  "buffers": [
    {
      "byteLength": 228864,
      "uri": "data:application/octet-stream;base64,"
    }
  ],
  "accessors": [
    {
      "bufferView": 0,
      "componentType": 5126,
      "count": 7152,
      "max": [
        74.03849792480469,
        196.22149658203125,
        27.94059944152832
      ],
      "min": [
        -74.03849792480469,
        0.8145999908447266,
        -21.670000076293945
      ],
      "type": "VEC3"
    },
    {
      "bufferView": 1,
      "componentType": 5126,
      "count": 7152,
      "max": [
        0.9999492764472961,
        0.9988900423049927,
        0.9999723434448242
      ],
      "min": [
        -0.9999492764472961,
        -0.9998709559440613,
        -0.9998843669891357
      ],
      "type": "VEC3"
    },
    {
      "bufferView": 2,
      "componentType": 5126,
      "count": 7152,
      "max": [
        0.9939000010490417,
        0.9932999610900879
      ],
      "min": [
        0.006199999712407589,
        0.02410000003874302
      ],
      "type": "VEC2"
    }
  ],
  "materials": [
    {
      "pbrMetallicRoughness": {
        "metallicFactor": 0,
        "roughnessFactor": 1
      },
      "name": "MonsterCyclops:standardSurface2"
    }
  ],
  "meshes": [
    {
      "primitives": [
        {
          "mode": 4,
          "attributes": {
            "POSITION": 0,
            "NORMAL": 1,
            "TEXCOORD_0": 2
          },
          "material": 0
        }
      ]
    }
  ]
}