{"accessors" : [{"bufferView" : 0, "byteOffset" : 0, "componentType" : 5123, "count" : 1464, "type" : "SCALAR", "max" : [975], "min" : [0]}, {"bufferView" : 1, "byteOffset" : 0, "componentType" : 5126, "count" : 976, "type" : "VEC3", "max" : [8.753169059753418, 158.9169921875, 8.376972198486328], "min" : [-8.753167152404785, 141.40768432617188, -12.210883140563965], "name" : "POSITION"}, {"bufferView" : 1, "byteOffset" : 12, "componentType" : 5126, "count" : 976, "type" : "VEC3", "max" : [0.9775095582008362, 0.9615987539291382, 0.9893059730529785], "min" : [-0.9946234226226807, -0.9871151447296143, -0.9997178316116333], "name" : "NORMAL"}, {"bufferView" : 1, "byteOffset" : 24, "componentType" : 5126, "count" : 976, "type" : "VEC2", "max" : [0.9197995066642761, 0.9262620210647583], "min" : [0.08020049333572388, 0.15431725978851318], "name" : "TEXCOORD_0"}, {"bufferView" : 0, "byteOffset" : 2928, "componentType" : 5123, "count" : 720, "type" : "SCALAR", "max" : [479], "min" : [0]}, {"bufferView" : 2, "byteOffset" : 0, "componentType" : 5126, "count" : 480, "type" : "VEC3", "max" : [17.247007369995117, 144.14602661132812, 13.637674331665039], "min" : [-31.35661506652832, 79.86278533935547, -14.464438438415527], "name" : "POSITION"}, {"bufferView" : 2, "byteOffset" : 12, "componentType" : 5126, "count" : 480, "type" : "VEC3", "max" : [0.9902677536010742, 1.0000044107437134, 0.9999880790710449], "min" : [-0.9902672171592712, -1.0000044107437134, -0.9999880194664001], "name" : "NORMAL"}, {"bufferView" : 2, "byteOffset" : 24, "componentType" : 5126, "count" : 480, "type" : "VEC2", "max" : [0.8816469311714172, 0.9866265654563904], "min" : [0.10560223460197449, 0.013490140438079834], "name" : "TEXCOORD_0"}, {"bufferView" : 0, "byteOffset" : 4368, "componentType" : 5123, "count" : 384, "type" : "SCALAR", "max" : [255], "min" : [0]}, {"bufferView" : 3, "byteOffset" : 0, "componentType" : 5126, "count" : 256, "type" : "VEC3", "max" : [14.000480651855469, 149.076904296875, 9.853055953979492], "min" : [-14.000481605529785, 136.29847717285156, -11.122764587402344], "name" : "POSITION"}, {"bufferView" : 3, "byteOffset" : 12, "componentType" : 5126, "count" : 256, "type" : "VEC3", "max" : [0.7195442914962769, 0.9839646816253662, 0.9012126326560974], "min" : [-0.7194951772689819, -0.9950264096260071, -0.9763447046279907], "name" : "NORMAL"}, {"bufferView" : 3, "byteOffset" : 24, "componentType" : 5126, "count" : 256, "type" : "VEC2", "max" : [0.960010826587677, 0.9813935160636902], "min" : [0.04020945355296135, 0.5144936442375183], "name" : "TEXCOORD_0"}, {"bufferView" : 0, "byteOffset" : 5136, "componentType" : 5123, "count" : 2196, "type" : "SCALAR", "max" : [1463], "min" : [0]}, {"bufferView" : 4, "byteOffset" : 0, "componentType" : 5126, "count" : 1464, "type" : "VEC3", "max" : [38.71167755126953, 143.3831329345703, 12.240511894226074], "min" : [-38.71167755126953, 45.15711212158203, -13.16321849822998], "name" : "POSITION"}, {"bufferView" : 4, "byteOffset" : 12, "componentType" : 5126, "count" : 1464, "type" : "VEC3", "max" : [0.990992546081543, 1.0000025033950806, 1.0000032186508179], "min" : [-0.990992546081543, -1.0000011920928955, -0.999998927116394], "name" : "NORMAL"}, {"bufferView" : 4, "byteOffset" : 24, "componentType" : 5126, "count" : 1464, "type" : "VEC2", "max" : [0.949070930480957, 0.9146358966827393], "min" : [0.03373438119888306, 0.03175574541091919], "name" : "TEXCOORD_0"}, {"bufferView" : 0, "byteOffset" : 9528, "componentType" : 5123, "count" : 1260, "type" : "SCALAR", "max" : [839], "min" : [0]}, {"bufferView" : 5, "byteOffset" : 0, "componentType" : 5126, "count" : 840, "type" : "VEC3", "max" : [70.60311126708984, 169.48480224609375, 2.57366943359375], "min" : [65.45578002929688, 0, -2.57366943359375], "name" : "POSITION"}, {"bufferView" : 5, "byteOffset" : 12, "componentType" : 5126, "count" : 840, "type" : "VEC3", "max" : [0.99589604139328, 1.0000044107437134, 0.9972869753837585], "min" : [-0.9970042109489441, -1.0000044107437134, -0.9863576292991638], "name" : "NORMAL"}, {"bufferView" : 5, "byteOffset" : 24, "componentType" : 5126, "count" : 840, "type" : "VEC2", "max" : [0.9561169743537903, 0.9760321378707886], "min" : [0.08593980967998505, 0.019344687461853027], "name" : "TEXCOORD_0"}, {"bufferView" : 0, "byteOffset" : 12048, "componentType" : 5123, "count" : 5292, "type" : "SCALAR", "max" : [3523], "min" : [0]}, {"bufferView" : 6, "byteOffset" : 0, "componentType" : 5126, "count" : 3524, "type" : "VEC3", "max" : [64.34876251220703, 158.63926696777344, 14.605645179748535], "min" : [-64.34876251220703, -0.0284920334815979, -11.908759117126465], "name" : "POSITION"}, {"bufferView" : 6, "byteOffset" : 12, "componentType" : 5126, "count" : 3524, "type" : "VEC3", "max" : [0.9975562691688538, 1.0000044107437134, 0.9999361038208008], "min" : [-0.9975562691688538, -1.0000044107437134, -0.9999671578407288], "name" : "NORMAL"}, {"bufferView" : 6, "byteOffset" : 24, "componentType" : 5126, "count" : 3524, "type" : "VEC2", "max" : [0.9748423099517822, 1.0027568340301514], "min" : [0.01260007731616497, -0.008098840713500977], "name" : "TEXCOORD_0"}, {"bufferView" : 0, "byteOffset" : 22632, "componentType" : 5123, "count" : 372, "type" : "SCALAR", "max" : [247], "min" : [0]}, {"bufferView" : 7, "byteOffset" : 0, "componentType" : 5126, "count" : 248, "type" : "VEC3", "max" : [9.028266906738281, 169.9746551513672, 8.621234893798828], "min" : [-9.022546768188477, 157.439697265625, -9.611555099487305], "name" : "POSITION"}, {"bufferView" : 7, "byteOffset" : 12, "componentType" : 5126, "count" : 248, "type" : "VEC3", "max" : [0.9818214178085327, 0.9262761473655701, 0.9998249411582947], "min" : [-0.9818218350410461, -0.9992508292198181, -0.9967513084411621], "name" : "NORMAL"}, {"bufferView" : 7, "byteOffset" : 24, "componentType" : 5126, "count" : 248, "type" : "VEC2", "max" : [0.9030681252479553, 0.9825426936149597], "min" : [0.018373437225818634, 0.5771981477737427], "name" : "TEXCOORD_0"}, {"bufferView" : 0, "byteOffset" : 23376, "componentType" : 5123, "count" : 324, "type" : "SCALAR", "max" : [215], "min" : [0]}, {"bufferView" : 8, "byteOffset" : 0, "componentType" : 5126, "count" : 216, "type" : "VEC3", "max" : [54.03093338012695, 114.10096740722656, 2.9345359802246094], "min" : [-54.03093338012695, 96.8765869140625, -8.284488677978516], "name" : "POSITION"}, {"bufferView" : 8, "byteOffset" : 12, "componentType" : 5126, "count" : 216, "type" : "VEC3", "max" : [0.9818214178085327, 0.9262761473655701, 0.9998249411582947], "min" : [-0.9818218350410461, -0.9992508292198181, -0.9967513084411621], "name" : "NORMAL"}, {"bufferView" : 8, "byteOffset" : 24, "componentType" : 5126, "count" : 216, "type" : "VEC2", "max" : [0.9030681252479553, 0.9825426936149597], "min" : [0.04298662394285202, 0.587804913520813], "name" : "TEXCOORD_0"}], "asset" : {"generator" : "Aspose.3D 25.11.0", "version" : "2.0"}, "buffers" : [{"uri" : "data:application/octet-stream;base64,", "byteLength" : 280188}], "bufferViews" : [{"buffer" : 0, "byteOffset" : 0, "byteLength" : 24024, "target" : 34963}, {"buffer" : 0, "byteOffset" : 24028, "byteLength" : 31232, "byteStride" : 32, "target" : 34962}, {"buffer" : 0, "byteOffset" : 55264, "byteLength" : 15360, "byteStride" : 32, "target" : 34962}, {"buffer" : 0, "byteOffset" : 70628, "byteLength" : 8192, "byteStride" : 32, "target" : 34962}, {"buffer" : 0, "byteOffset" : 78824, "byteLength" : 46848, "byteStride" : 32, "target" : 34962}, {"buffer" : 0, "byteOffset" : 125676, "byteLength" : 26880, "byteStride" : 32, "target" : 34962}, {"buffer" : 0, "byteOffset" : 152560, "byteLength" : 112768, "byteStride" : 32, "target" : 34962}, {"buffer" : 0, "byteOffset" : 265332, "byteLength" : 7936, "byteStride" : 32, "target" : 34962}, {"buffer" : 0, "byteOffset" : 273272, "byteLength" : 6912, "byteStride" : 32, "target" : 34962}], "materials" : [{"name" : "Pelo1", "pbrMetallicRoughness" : {"baseColorFactor" : [0, 0, 0, 1], "metallicFactor" : 1, "roughnessFactor" : 1}, "emissiveFactor" : [0, 0, 0], "alphaMode" : "OPAQUE", "doubleSided" : false}, {"name" : "Bolso1", "pbrMetallicRoughness" : {"baseColorFactor" : [0, 0, 0, 1], "metallicFactor" : 1, "roughnessFactor" : 1}, "emissiveFactor" : [0, 0, 0], "alphaMode" : "OPAQUE", "doubleSided" : false}, {"name" : "Oro", "pbrMetallicRoughness" : {"baseColorFactor" : [0, 0, 0, 1], "metallicFactor" : 1, "roughnessFactor" : 1}, "emissiveFactor" : [0, 0, 0], "alphaMode" : "OPAQUE", "doubleSided" : false}, {"name" : "Ropa2", "pbrMetallicRoughness" : {"baseColorFactor" : [0, 0, 0, 1], "metallicFactor" : 1, "roughnessFactor" : 1}, "emissiveFactor" : [0, 0, 0], "alphaMode" : "OPAQUE", "doubleSided" : false}, {"name" : "BaculoDruida", "pbrMetallicRoughness" : {"baseColorFactor" : [0, 0, 0, 1], "metallicFactor" : 1, "roughnessFactor" : 1}, "emissiveFactor" : [0, 0, 0], "alphaMode" : "OPAQUE", "doubleSided" : false}, {"name" : "Druida", "pbrMetallicRoughness" : {"baseColorFactor" : [0, 0, 0, 1], "metallicFactor" : 1, "roughnessFactor" : 1}, "emissiveFactor" : [0, 0, 0], "alphaMode" : "OPAQUE", "doubleSided" : false}], "meshes" : [{"primitives" : [{"attributes" : {"POSITION" : 1, "NORMAL" : 2, "TEXCOORD_0" : 3}, "indices" : 0, "material" : 0, "mode" : 4}], "name" : ""}, {"primitives" : [{"attributes" : {"POSITION" : 5, "NORMAL" : 6, "TEXCOORD_0" : 7}, "indices" : 4, "material" : 1, "mode" : 4}], "name" : ""}, {"primitives" : [{"attributes" : {"POSITION" : 9, "NORMAL" : 10, "TEXCOORD_0" : 11}, "indices" : 8, "material" : 2, "mode" : 4}], "name" : ""}, {"primitives" : [{"attributes" : {"POSITION" : 13, "NORMAL" : 14, "TEXCOORD_0" : 15}, "indices" : 12, "material" : 3, "mode" : 4}], "name" : ""}, {"primitives" : [{"attributes" : {"POSITION" : 17, "NORMAL" : 18, "TEXCOORD_0" : 19}, "indices" : 16, "material" : 4, "mode" : 4}], "name" : ""}, {"primitives" : [{"attributes" : {"POSITION" : 21, "NORMAL" : 22, "TEXCOORD_0" : 23}, "indices" : 20, "material" : 5, "mode" : 4}, {"attributes" : {"POSITION" : 25, "NORMAL" : 26, "TEXCOORD_0" : 27}, "indices" : 24, "material" : 5, "mode" : 4}, {"attributes" : {"POSITION" : 29, "NORMAL" : 30, "TEXCOORD_0" : 31}, "indices" : 28, "material" : 5, "mode" : 4}], "name" : ""}], "nodes" : [{"mesh" : 0, "name" : "Pelo"}, {"mesh" : 1, "name" : "Bolso"}, {"mesh" : 2, "name" : "Cuello"}, {"mesh" : 3, "name" : "Ropa1"}, {"mesh" : 4, "name" : "Baculo_Druida"}, {"mesh" : 5, "name" : "Cuerpo_Druida"}, {"children" : [0, 1, 2, 3, 4, 5], "matrix" : [0.01, 0, 0, 0, 0, 0.01, 0, 0, 0, 0, 0.01, 0, 0, -3.4416913763379853E-15, 1.6263032587282567E-18, 1], "name" : "Druida1"}], "scene" : 0, "scenes" : [{"nodes" : [6]}]}