{"accessors" : [{"bufferView" : 0, "byteOffset" : 0, "componentType" : 5123, "count" : 948, "type" : "SCALAR", "max" : [631], "min" : [0]}, {"bufferView" : 1, "byteOffset" : 0, "componentType" : 5126, "count" : 632, "type" : "VEC3", "max" : [25.886260986328125, 93.55509185791016, 15.579904556274414], "min" : [-32.991119384765625, 23.153270721435547, -18.046688079833984], "name" : "POSITION"}, {"bufferView" : 1, "byteOffset" : 12, "componentType" : 5126, "count" : 632, "type" : "VEC3", "max" : [0.9614391922950745, 0.9899121522903442, 0.9998825192451477], "min" : [-0.9527976512908936, -0.9938516616821289, -0.9999996423721313], "name" : "NORMAL"}, {"bufferView" : 1, "byteOffset" : 24, "componentType" : 5126, "count" : 632, "type" : "VEC2", "max" : [0.9783122539520264, 0.9752880930900574], "min" : [0.023588061332702637, 0.23666083812713623], "name" : "TEXCOORD_0"}, {"bufferView" : 0, "byteOffset" : 1896, "componentType" : 5123, "count" : 504, "type" : "SCALAR", "max" : [335], "min" : [0]}, {"bufferView" : 2, "byteOffset" : 0, "componentType" : 5126, "count" : 336, "type" : "VEC3", "max" : [8.810633659362793, 146.54373168945312, 5.341628551483154], "min" : [-8.648380279541016, 141.91197204589844, 3.005587339401245], "name" : "POSITION"}, {"bufferView" : 2, "byteOffset" : 12, "componentType" : 5126, "count" : 336, "type" : "VEC3", "max" : [1.0000044107437134, 1.0000044107437134, 0.9947700500488281], "min" : [-1.0000044107437134, -1.0000044107437134, -0.9947699904441833], "name" : "NORMAL"}, {"bufferView" : 2, "byteOffset" : 24, "componentType" : 5126, "count" : 336, "type" : "VEC2", "max" : [0.9722447395324707, 0.7962932586669922], "min" : [0.7830566167831421, 0.6634910702705383], "name" : "TEXCOORD_0"}, {"bufferView" : 0, "byteOffset" : 2904, "componentType" : 5123, "count" : 5622, "type" : "SCALAR", "max" : [3749], "min" : [0]}, {"bufferView" : 3, "byteOffset" : 0, "componentType" : 5126, "count" : 3750, "type" : "VEC3", "max" : [63.424129486083984, 159.3047332763672, 15.399600982666016], "min" : [-63.43354034423828, 4.276259422302246, -10.557683944702148], "name" : "POSITION"}, {"bufferView" : 3, "byteOffset" : 12, "componentType" : 5126, "count" : 3750, "type" : "VEC3", "max" : [0.999372124671936, 1.0000044107437134, 0.9999717473983765], "min" : [-0.999372124671936, -1.0000044107437134, -0.9998870491981506], "name" : "NORMAL"}, {"bufferView" : 3, "byteOffset" : 24, "componentType" : 5126, "count" : 3750, "type" : "VEC2", "max" : [0.9746049642562866, 0.9707106947898865], "min" : [0.01565919816493988, 0.008681416511535645], "name" : "TEXCOORD_0"}, {"bufferView" : 0, "byteOffset" : 14148, "componentType" : 5123, "count" : 1728, "type" : "SCALAR", "max" : [1151], "min" : [0]}, {"bufferView" : 4, "byteOffset" : 0, "componentType" : 5126, "count" : 1152, "type" : "VEC3", "max" : [52.968231201171875, 138.79232788085938, 16.241531372070312], "min" : [-52.77081298828125, 18.627838134765625, -13.692638397216797], "name" : "POSITION"}, {"bufferView" : 4, "byteOffset" : 12, "componentType" : 5126, "count" : 1152, "type" : "VEC3", "max" : [0.9976146817207336, 0.9471147656440735, 0.9999717473983765], "min" : [-0.9976146817207336, -0.9971075654029846, -0.9982104897499084], "name" : "NORMAL"}, {"bufferView" : 4, "byteOffset" : 24, "componentType" : 5126, "count" : 1152, "type" : "VEC2", "max" : [0.9746049642562866, 0.9700541496276855], "min" : [0.024341702461242676, 0.008681416511535645], "name" : "TEXCOORD_0"}, {"bufferView" : 0, "byteOffset" : 17604, "componentType" : 5123, "count" : 216, "type" : "SCALAR", "max" : [143], "min" : [0]}, {"bufferView" : 5, "byteOffset" : 0, "componentType" : 5126, "count" : 144, "type" : "VEC3", "max" : [2.7856035232543945, 145.32791137695312, -7.561262607574463], "min" : [-2.8375236988067627, 143.9905242919922, -9.76894474029541], "name" : "POSITION"}, {"bufferView" : 5, "byteOffset" : 12, "componentType" : 5126, "count" : 144, "type" : "VEC3", "max" : [0.6096177697181702, 0.9500730037689209, 0.9978843927383423], "min" : [-0.5609921216964722, -0.9500751495361328, -0.9992752075195312], "name" : "NORMAL"}, {"bufferView" : 5, "byteOffset" : 24, "componentType" : 5126, "count" : 144, "type" : "VEC2", "max" : [0.9621979594230652, 0.7292143106460571], "min" : [0.8997468948364258, 0.6683782339096069], "name" : "TEXCOORD_0"}, {"bufferView" : 0, "byteOffset" : 18036, "componentType" : 5123, "count" : 552, "type" : "SCALAR", "max" : [367], "min" : [0]}, {"bufferView" : 6, "byteOffset" : 0, "componentType" : 5126, "count" : 368, "type" : "VEC3", "max" : [12.235989570617676, 160.92337036132812, 12.499530792236328], "min" : [-11.973939895629883, 108.8442611694336, -16.668703079223633], "name" : "POSITION"}, {"bufferView" : 6, "byteOffset" : 12, "componentType" : 5126, "count" : 368, "type" : "VEC3", "max" : [0.9958411455154419, 0.9947755336761475, 0.9978843927383423], "min" : [-0.9958411455154419, -0.991917073726654, -0.9992924928665161], "name" : "NORMAL"}, {"bufferView" : 6, "byteOffset" : 24, "componentType" : 5126, "count" : 368, "type" : "VEC2", "max" : [0.9621979594230652, 0.7292143106460571], "min" : [0.4477912485599518, 0.021562039852142334], "name" : "TEXCOORD_0"}, {"bufferView" : 0, "byteOffset" : 19140, "componentType" : 5123, "count" : 3564, "type" : "SCALAR", "max" : [2390], "min" : [0]}, {"bufferView" : 7, "byteOffset" : 0, "componentType" : 5126, "count" : 2391, "type" : "VEC3", "max" : [24.115589141845703, 171.53453063964844, 18.046688079833984], "min" : [-23.918167114257812, 142.83285522460938, 9.016494750976562], "name" : "POSITION"}, {"bufferView" : 7, "byteOffset" : 12, "componentType" : 5126, "count" : 2391, "type" : "VEC3", "max" : [0.9998558163642883, 0.9999997019767761, 1.0000044107437134], "min" : [-0.9998558163642883, -1.0000044107437134, -0.9999898076057434], "name" : "NORMAL"}, {"bufferView" : 7, "byteOffset" : 24, "componentType" : 5126, "count" : 2391, "type" : "VEC2", "max" : [0.9777020215988159, 0.9659645557403564], "min" : [0.694271445274353, 0.027511239051818848], "name" : "TEXCOORD_0"}], "asset" : {"generator" : "Aspose.3D 25.11.0", "version" : "2.0"}, "buffers" : [{"uri" : "data:application/octet-stream;base64,", "byteLength" : 307036}], "bufferViews" : [{"buffer" : 0, "byteOffset" : 0, "byteLength" : 26268, "target" : 34963}, {"buffer" : 0, "byteOffset" : 26272, "byteLength" : 20224, "byteStride" : 32, "target" : 34962}, {"buffer" : 0, "byteOffset" : 46500, "byteLength" : 10752, "byteStride" : 32, "target" : 34962}, {"buffer" : 0, "byteOffset" : 57256, "byteLength" : 120000, "byteStride" : 32, "target" : 34962}, {"buffer" : 0, "byteOffset" : 177260, "byteLength" : 36864, "byteStride" : 32, "target" : 34962}, {"buffer" : 0, "byteOffset" : 214128, "byteLength" : 4608, "byteStride" : 32, "target" : 34962}, {"buffer" : 0, "byteOffset" : 218740, "byteLength" : 11776, "byteStride" : 32, "target" : 34962}, {"buffer" : 0, "byteOffset" : 230520, "byteLength" : 76512, "byteStride" : 32, "target" : 34962}], "materials" : [{"name" : "aiStandardSurface4", "pbrMetallicRoughness" : {"baseColorFactor" : [0, 0, 0, 1], "metallicFactor" : 1, "roughnessFactor" : 1}, "emissiveFactor" : [0, 0, 0], "alphaMode" : "OPAQUE", "doubleSided" : false}, {"name" : "Aretes", "pbrMetallicRoughness" : {"baseColorFactor" : [0, 0, 0, 1], "metallicFactor" : 1, "roughnessFactor" : 1}, "emissiveFactor" : [0, 0, 0], "alphaMode" : "OPAQUE", "doubleSided" : false}, {"name" : "Explorador", "pbrMetallicRoughness" : {"baseColorFactor" : [0, 0, 0, 1], "metallicFactor" : 1, "roughnessFactor" : 1}, "emissiveFactor" : [0, 0, 0], "alphaMode" : "OPAQUE", "doubleSided" : false}, {"name" : "aiStandardSurface6", "pbrMetallicRoughness" : {"baseColorFactor" : [0, 0, 0, 1], "metallicFactor" : 1, "roughnessFactor" : 1}, "emissiveFactor" : [0, 0, 0], "alphaMode" : "OPAQUE", "doubleSided" : false}, {"name" : "aiStandardSurface1", "pbrMetallicRoughness" : {"baseColorFactor" : [0, 0, 0, 1], "metallicFactor" : 1, "roughnessFactor" : 1}, "emissiveFactor" : [0, 0, 0], "alphaMode" : "OPAQUE", "doubleSided" : false}], "meshes" : [{"primitives" : [{"attributes" : {"POSITION" : 1, "NORMAL" : 2, "TEXCOORD_0" : 3}, "indices" : 0, "material" : 0, "mode" : 4}], "name" : ""}, {"primitives" : [{"attributes" : {"POSITION" : 5, "NORMAL" : 6, "TEXCOORD_0" : 7}, "indices" : 4, "material" : 1, "mode" : 4}], "name" : ""}, {"primitives" : [{"attributes" : {"POSITION" : 9, "NORMAL" : 10, "TEXCOORD_0" : 11}, "indices" : 8, "material" : 2, "mode" : 4}, {"attributes" : {"POSITION" : 13, "NORMAL" : 14, "TEXCOORD_0" : 15}, "indices" : 12, "material" : 2, "mode" : 4}], "name" : ""}, {"primitives" : [{"attributes" : {"POSITION" : 17, "NORMAL" : 18, "TEXCOORD_0" : 19}, "indices" : 16, "material" : 3, "mode" : 4}, {"attributes" : {"POSITION" : 21, "NORMAL" : 22, "TEXCOORD_0" : 23}, "indices" : 20, "material" : 3, "mode" : 4}], "name" : ""}, {"primitives" : [{"attributes" : {"POSITION" : 25, "NORMAL" : 26, "TEXCOORD_0" : 27}, "indices" : 24, "material" : 4, "mode" : 4}], "name" : ""}], "nodes" : [{"mesh" : 0, "name" : "Falda1"}, {"mesh" : 1, "name" : "Aretes1"}, {"mesh" : 2, "name" : "Cuerpo_Exp"}, {"mesh" : 3, "name" : "Cabello3"}, {"mesh" : 4, "name" : "Mascara1"}, {"children" : [0, 1, 2, 3, 4], "matrix" : [0.01, 0, 0, 0, 0, 0.01, 0, 0, 0, 0, 0.01, 0, 0, 0, -1.0339757656912846E-24, 1], "name" : "Explorador1"}], "scene" : 0, "scenes" : [{"nodes" : [5]}]}