{"accessors" : [{"bufferView" : 0, "byteOffset" : 0, "componentType" : 5123, "count" : 498, "type" : "SCALAR", "max" : [329], "min" : [0]}, {"bufferView" : 1, "byteOffset" : 0, "componentType" : 5126, "count" : 330, "type" : "VEC3", "max" : [26.5599422454834, 107.35652923583984, -77.15106964111328], "min" : [-34.22426986694336, 30.910961151123047, -122.84893035888672], "name" : "POSITION"}, {"bufferView" : 1, "byteOffset" : 12, "componentType" : 5126, "count" : 330, "type" : "VEC3", "max" : [0.9710042476654053, 0.6735615730285645, 0.9998325109481812], "min" : [-0.9757058024406433, -0.1971581131219864, -0.9975758790969849], "name" : "NORMAL"}, {"bufferView" : 1, "byteOffset" : 24, "componentType" : 5126, "count" : 330, "type" : "VEC2", "max" : [0.9761493802070618, 0.9778565168380737], "min" : [0.03985320031642914, 0.38872385025024414], "name" : "TEXCOORD_0"}, {"bufferView" : 0, "byteOffset" : 996, "componentType" : 5123, "count" : 756, "type" : "SCALAR", "max" : [503], "min" : [0]}, {"bufferView" : 2, "byteOffset" : 0, "componentType" : 5126, "count" : 504, "type" : "VEC3", "max" : [17.236454010009766, 117.1414794921875, -77.71556091308594], "min" : [-17.236454010009766, 104.19004821777344, -109.29695892333984], "name" : "POSITION"}, {"bufferView" : 2, "byteOffset" : 12, "componentType" : 5126, "count" : 504, "type" : "VEC3", "max" : [0.9833775162696838, 0.6735615730285645, 0.9998325109481812], "min" : [-0.9876976609230042, -0.998082160949707, -0.9975758790969849], "name" : "NORMAL"}, {"bufferView" : 2, "byteOffset" : 24, "componentType" : 5126, "count" : 504, "type" : "VEC2", "max" : [0.9761493802070618, 0.9778565168380737], "min" : [0.03985320031642914, 0.010915160179138184], "name" : "TEXCOORD_0"}, {"bufferView" : 0, "byteOffset" : 2508, "componentType" : 5123, "count" : 3462, "type" : "SCALAR", "max" : [2094], "min" : [0]}, {"bufferView" : 3, "byteOffset" : 0, "componentType" : 5126, "count" : 2095, "type" : "VEC3", "max" : [56.82377624511719, 182.79115295410156, -78.12268829345703], "min" : [-47.787654876708984, 43.53068161010742, -125.47990417480469], "name" : "POSITION"}, {"bufferView" : 3, "byteOffset" : 12, "componentType" : 5126, "count" : 2095, "type" : "VEC3", "max" : [0.9923861026763916, 0.9999944567680359, 0.998577892780304], "min" : [-0.9966310262680054, -0.9997888207435608, -0.996559739112854], "name" : "NORMAL"}, {"bufferView" : 3, "byteOffset" : 24, "componentType" : 5126, "count" : 2095, "type" : "VEC2", "max" : [0.9940488338470459, 0.9937840104103088], "min" : [0.004134535789489746, 0.003953993320465088], "name" : "TEXCOORD_0"}, {"bufferView" : 0, "byteOffset" : 9432, "componentType" : 5123, "count" : 156, "type" : "SCALAR", "max" : [101], "min" : [0]}, {"bufferView" : 4, "byteOffset" : 0, "componentType" : 5126, "count" : 102, "type" : "VEC3", "max" : [5.513032913208008, 175.1582489013672, -81.70719146728516], "min" : [-5.513032913208008, 163.3987274169922, -88.41582489013672], "name" : "POSITION"}, {"bufferView" : 4, "byteOffset" : 12, "componentType" : 5126, "count" : 102, "type" : "VEC3", "max" : [0.9420149922370911, 0.4448934495449066, 0.8675443530082703], "min" : [-0.916500449180603, -0.9517074823379517, -0.9923872947692871], "name" : "NORMAL"}, {"bufferView" : 4, "byteOffset" : 24, "componentType" : 5126, "count" : 102, "type" : "VEC2", "max" : [0.5744724273681641, 0.8569149374961853], "min" : [0.00633770227432251, 0.05645895004272461], "name" : "TEXCOORD_0"}, {"bufferView" : 0, "byteOffset" : 9744, "componentType" : 5123, "count" : 192, "type" : "SCALAR", "max" : [63], "min" : [0]}, {"bufferView" : 5, "byteOffset" : 0, "componentType" : 5126, "count" : 64, "type" : "VEC3", "max" : [7.650521278381348, 168.07716369628906, -83.48446655273438], "min" : [-7.650521278381348, 151.404052734375, -95.77520751953125], "name" : "POSITION"}, {"bufferView" : 5, "byteOffset" : 12, "componentType" : 5126, "count" : 64, "type" : "VEC3", "max" : [0.9955056309700012, 0.6407921314239502, 0.9469662308692932], "min" : [-0.9894756078720093, -0.9469147324562073, -0.792410671710968], "name" : "NORMAL"}, {"bufferView" : 5, "byteOffset" : 24, "componentType" : 5126, "count" : 64, "type" : "VEC2", "max" : [0.9605745673179626, 0.6356242895126343], "min" : [0.7805431485176086, 0.22944164276123047], "name" : "TEXCOORD_0"}, {"bufferView" : 0, "byteOffset" : 10128, "componentType" : 5123, "count" : 336, "type" : "SCALAR", "max" : [212], "min" : [0]}, {"bufferView" : 6, "byteOffset" : 0, "componentType" : 5126, "count" : 213, "type" : "VEC3", "max" : [4.779027938842773, 170.94705200195312, -86.94276428222656], "min" : [-4.779027938842773, 168.29000854492188, -89.07032775878906], "name" : "POSITION"}, {"bufferView" : 6, "byteOffset" : 12, "componentType" : 5126, "count" : 213, "type" : "VEC3", "max" : [0.9946163892745972, 0.808311939239502, 0.9952653050422668], "min" : [-0.9990180730819702, -0.9671857953071594, -0.5514140725135803], "name" : "NORMAL"}, {"bufferView" : 6, "byteOffset" : 24, "componentType" : 5126, "count" : 213, "type" : "VEC2", "max" : [0.9605745673179626, 0.6356242895126343], "min" : [0.24016141891479492, 0.17729532718658447], "name" : "TEXCOORD_0"}, {"bufferView" : 0, "byteOffset" : 10800, "componentType" : 5123, "count" : 13260, "type" : "SCALAR", "max" : [8683], "min" : [0]}, {"bufferView" : 7, "byteOffset" : 0, "componentType" : 5126, "count" : 8684, "type" : "VEC3", "max" : [67.78758239746094, 179.97329711914062, -77.47901153564453], "min" : [-67.78758239746094, -0.19931483268737793, -110.37850952148438], "name" : "POSITION"}, {"bufferView" : 7, "byteOffset" : 12, "componentType" : 5126, "count" : 8684, "type" : "VEC3", "max" : [0.9996036291122437, 0.9997080564498901, 0.9995573163032532], "min" : [-0.9999629855155945, -0.9999958872795105, -0.9990901350975037], "name" : "NORMAL"}, {"bufferView" : 7, "byteOffset" : 24, "componentType" : 5126, "count" : 8684, "type" : "VEC2", "max" : [0.997246265411377, 0.9912164211273193], "min" : [0.009336113929748535, 0.0027757883071899414], "name" : "TEXCOORD_0"}, {"bufferView" : 0, "byteOffset" : 37320, "componentType" : 5123, "count" : 1848, "type" : "SCALAR", "max" : [1226], "min" : [0]}, {"bufferView" : 8, "byteOffset" : 0, "componentType" : 5126, "count" : 1227, "type" : "VEC3", "max" : [58.4056282043457, 143.99171447753906, -83.41167449951172], "min" : [-58.4056282043457, 115.1727066040039, -107.49449920654297], "name" : "POSITION"}, {"bufferView" : 8, "byteOffset" : 12, "componentType" : 5126, "count" : 1227, "type" : "VEC3", "max" : [0.9993531703948975, 0.9994086623191833, 0.9881401658058167], "min" : [-0.9944345355033875, -0.9665017127990723, -0.9952346086502075], "name" : "NORMAL"}, {"bufferView" : 8, "byteOffset" : 24, "componentType" : 5126, "count" : 1227, "type" : "VEC2", "max" : [0.9605745673179626, 0.691796064376831], "min" : [0.014676621183753014, 0.0027757883071899414], "name" : "TEXCOORD_0"}, {"bufferView" : 0, "byteOffset" : 41016, "componentType" : 5123, "count" : 1152, "type" : "SCALAR", "max" : [754], "min" : [0]}, {"bufferView" : 9, "byteOffset" : 0, "componentType" : 5126, "count" : 755, "type" : "VEC3", "max" : [20.945837020874023, 44.110076904296875, -92.93527221679688], "min" : [-20.945837020874023, 10.682592391967773, -112.2430419921875], "name" : "POSITION"}, {"bufferView" : 9, "byteOffset" : 12, "componentType" : 5126, "count" : 755, "type" : "VEC3", "max" : [0.9985388517379761, 0.9351451992988586, 0.990378201007843], "min" : [-0.9946960210800171, -0.9845550656318665, -0.9994857907295227], "name" : "NORMAL"}, {"bufferView" : 9, "byteOffset" : 24, "componentType" : 5126, "count" : 755, "type" : "VEC2", "max" : [0.9605745673179626, 0.6356242895126343], "min" : [0.014676621183753014, 0.0027757883071899414], "name" : "TEXCOORD_0"}], "asset" : {"generator" : "Aspose.3D 25.11.0", "version" : "2.0"}, "buffers" : [{"uri" : "data:application/octet-stream;base64,", "byteLength" : 490528}], "bufferViews" : [{"buffer" : 0, "byteOffset" : 0, "byteLength" : 43320, "target" : 34963}, {"buffer" : 0, "byteOffset" : 43324, "byteLength" : 10560, "byteStride" : 32, "target" : 34962}, {"buffer" : 0, "byteOffset" : 53888, "byteLength" : 16128, "byteStride" : 32, "target" : 34962}, {"buffer" : 0, "byteOffset" : 70020, "byteLength" : 67040, "byteStride" : 32, "target" : 34962}, {"buffer" : 0, "byteOffset" : 137064, "byteLength" : 3264, "byteStride" : 32, "target" : 34962}, {"buffer" : 0, "byteOffset" : 140332, "byteLength" : 2048, "byteStride" : 32, "target" : 34962}, {"buffer" : 0, "byteOffset" : 142384, "byteLength" : 6816, "byteStride" : 32, "target" : 34962}, {"buffer" : 0, "byteOffset" : 149204, "byteLength" : 277888, "byteStride" : 32, "target" : 34962}, {"buffer" : 0, "byteOffset" : 427096, "byteLength" : 39264, "byteStride" : 32, "target" : 34962}, {"buffer" : 0, "byteOffset" : 466364, "byteLength" : 24160, "byteStride" : 32, "target" : 34962}], "materials" : [{"name" : "TelaFalda", "pbrMetallicRoughness" : {"baseColorFactor" : [0, 0, 0, 1], "metallicFactor" : 1, "roughnessFactor" : 1}, "emissiveFactor" : [0, 0, 0], "alphaMode" : "OPAQUE", "doubleSided" : false}, {"name" : "PielJaguar", "pbrMetallicRoughness" : {"baseColorFactor" : [0, 0, 0, 1], "metallicFactor" : 1, "roughnessFactor" : 1}, "emissiveFactor" : [0, 0, 0], "alphaMode" : "OPAQUE", "doubleSided" : false}, {"name" : "CabelloGuecha", "pbrMetallicRoughness" : {"baseColorFactor" : [0, 0, 0, 1], "metallicFactor" : 1, "roughnessFactor" : 1}, "emissiveFactor" : [0, 0, 0], "alphaMode" : "OPAQUE", "doubleSided" : false}], "meshes" : [{"primitives" : [{"attributes" : {"POSITION" : 1, "NORMAL" : 2, "TEXCOORD_0" : 3}, "indices" : 0, "material" : 0, "mode" : 4}, {"attributes" : {"POSITION" : 5, "NORMAL" : 6, "TEXCOORD_0" : 7}, "indices" : 4, "material" : 0, "mode" : 4}], "name" : ""}, {"primitives" : [{"attributes" : {"POSITION" : 9, "NORMAL" : 10, "TEXCOORD_0" : 11}, "indices" : 8, "material" : 1, "mode" : 4}, {"attributes" : {"POSITION" : 13, "NORMAL" : 14, "TEXCOORD_0" : 15}, "indices" : 12, "material" : 1, "mode" : 4}], "name" : ""}, {"primitives" : [{"attributes" : {"POSITION" : 17, "NORMAL" : 18, "TEXCOORD_0" : 19}, "indices" : 16, "material" : 2, "mode" : 4}, {"attributes" : {"POSITION" : 21, "NORMAL" : 22, "TEXCOORD_0" : 23}, "indices" : 20, "material" : 2, "mode" : 4}, {"attributes" : {"POSITION" : 25, "NORMAL" : 26, "TEXCOORD_0" : 27}, "indices" : 24, "material" : 2, "mode" : 4}, {"attributes" : {"POSITION" : 29, "NORMAL" : 30, "TEXCOORD_0" : 31}, "indices" : 28, "material" : 2, "mode" : 4}, {"attributes" : {"POSITION" : 33, "NORMAL" : 34, "TEXCOORD_0" : 35}, "indices" : 32, "material" : 2, "mode" : 4}], "name" : ""}], "nodes" : [{"matrix" : [1, 0, 0, 0, 0, 1, 0, 0, 0, 0, 1, 0, -1.9073486328125E-06, 0, 0, 1], "mesh" : 0, "name" : "Cinturon"}, {"matrix" : [1, 0, 0, 0, 0, 1.0000000000000002, 0, 0, 0, 0, 1.0000000000000002, 0, 4.768349004535821E-07, -8.526512829121202E-14, 1.4210854715202004E-14, 1], "mesh" : 1, "name" : "CapaJaguar"}, {"mesh" : 2, "name" : "Guecha"}, {"children" : [0, 1, 2], "matrix" : [0.01, 0, 0, 0, 0, 0.01, 0, 0, 0, 0, 0.01, 0, 0, -2.3314683517128287E-15, 1.0108607864379884, 1], "name" : "Guecha"}], "scene" : 0, "scenes" : [{"nodes" : [3]}]}