{"accessors" : [{"bufferView" : 0, "byteOffset" : 0, "componentType" : 5123, "count" : 16368, "type" : "SCALAR", "max" : [10911], "min" : [0]}, {"bufferView" : 1, "byteOffset" : 0, "componentType" : 5126, "count" : 10912, "type" : "VEC3", "max" : [58.000022888183594, 14.500101089477539, 58.20000076293945], "min" : [-59.327301025390625, -0.5003408789634705, -62.966270446777344], "name" : "POSITION"}, {"bufferView" : 1, "byteOffset" : 12, "componentType" : 5126, "count" : 10912, "type" : "VEC3", "max" : [1.0000044107437134, 1.0000044107437134, 1.0000044107437134], "min" : [-1.0000044107437134, -1.0000044107437134, -1.0000044107437134], "name" : "NORMAL"}, {"bufferView" : 1, "byteOffset" : 24, "componentType" : 5126, "count" : 10912, "type" : "VEC2", "max" : [0.875, 1], "min" : [0.125, 4.76837158203125E-07], "name" : "TEXCOORD_0"}], "asset" : {"generator" : "Aspose.3D 25.11.0", "version" : "2.0"}, "buffers" : [{"uri" : "data:application/octet-stream;base64,", "byteLength" : 381928}], "bufferViews" : [{"buffer" : 0, "byteOffset" : 0, "byteLength" : 32736, "target" : 34963}, {"buffer" : 0, "byteOffset" : 32740, "byteLength" : 349184, "byteStride" : 32, "target" : 34962}], "materials" : [{"name" : "openPBR_shader1", "pbrMetallicRoughness" : {"baseColorFactor" : [0.5, 0.5, 0.5, 1], "metallicFactor" : 1, "roughnessFactor" : 1}, "emissiveFactor" : [0, 0, 0], "alphaMode" : "OPAQUE", "doubleSided" : false}], "meshes" : [{"primitives" : [{"attributes" : {"POSITION" : 1, "NORMAL" : 2, "TEXCOORD_0" : 3}, "indices" : 0, "material" : 0, "mode" : 4}], "name" : ""}], "nodes" : [{"mesh" : 0, "name" : "pCube1"}], "scene" : 0, "scenes" : [{"nodes" : [0]}]}