{"accessors" : [{"bufferView" : 0, "byteOffset" : 0, "componentType" : 5123, "count" : 384, "type" : "SCALAR", "max" : [255], "min" : [0]}, {"bufferView" : 1, "byteOffset" : 0, "componentType" : 5126, "count" : 256, "type" : "VEC3", "max" : [-1.7539381980895996, 4.711614608764648, 0.7017509341239929], "min" : [-4.212759494781494, 1.8961464166641235, -1.312129259109497], "name" : "POSITION"}, {"bufferView" : 1, "byteOffset" : 12, "componentType" : 5126, "count" : 256, "type" : "VEC3", "max" : [0.9983638525009155, 0.9988822937011719, 1.0000044107437134], "min" : [-0.99953693151474, -0.9984278678894043, -1.0000044107437134], "name" : "NORMAL"}, {"bufferView" : 1, "byteOffset" : 24, "componentType" : 5126, "count" : 256, "type" : "VEC2", "max" : [0.6467737555503845, 0.9749103784561157], "min" : [0.025032252073287964, 0.08840197324752808], "name" : "TEXCOORD_0"}, {"bufferView" : 0, "byteOffset" : 768, "componentType" : 5123, "count" : 1020, "type" : "SCALAR", "max" : [679], "min" : [0]}, {"bufferView" : 2, "byteOffset" : 0, "componentType" : 5126, "count" : 680, "type" : "VEC3", "max" : [-2.8151419162750244, 6.70328426361084, 0.7603349089622498], "min" : [-3.5133845806121826, 6.077364444732666, -0.22496086359024048], "name" : "POSITION"}, {"bufferView" : 2, "byteOffset" : 12, "componentType" : 5126, "count" : 680, "type" : "VEC3", "max" : [0.9856284856796265, 0.8856725692749023, 0.9805260896682739], "min" : [-0.9856286644935608, -0.932310163974762, -0.9834437966346741], "name" : "NORMAL"}, {"bufferView" : 2, "byteOffset" : 24, "componentType" : 5126, "count" : 680, "type" : "VEC2", "max" : [0.3315529227256775, 0.6715149879455566], "min" : [0.025032252073287964, 0.03298485279083252], "name" : "TEXCOORD_0"}, {"bufferView" : 0, "byteOffset" : 2808, "componentType" : 5123, "count" : 300, "type" : "SCALAR", "max" : [199], "min" : [0]}, {"bufferView" : 3, "byteOffset" : 0, "componentType" : 5126, "count" : 200, "type" : "VEC3", "max" : [-2.7907299995422363, 6.752540111541748, 0.6525671482086182], "min" : [-3.5320663452148438, 6.2298760414123535, -0.29148101806640625], "name" : "POSITION"}, {"bufferView" : 3, "byteOffset" : 12, "componentType" : 5126, "count" : 200, "type" : "VEC3", "max" : [0.9999240040779114, 0.8201469779014587, 0.8858544826507568], "min" : [-0.9999240040779114, -0.2184150665998459, -0.9890140295028687], "name" : "NORMAL"}, {"bufferView" : 3, "byteOffset" : 24, "componentType" : 5126, "count" : 200, "type" : "VEC2", "max" : [0.19042539596557617, 0.30131053924560547], "min" : [0.1378408968448639, 0.061466217041015625], "name" : "TEXCOORD_0"}, {"bufferView" : 0, "byteOffset" : 3408, "componentType" : 5123, "count" : 288, "type" : "SCALAR", "max" : [191], "min" : [0]}, {"bufferView" : 4, "byteOffset" : 0, "componentType" : 5126, "count" : 192, "type" : "VEC3", "max" : [-3.432806968688965, 6.402402400970459, 0.18644918501377106], "min" : [-3.585414409637451, 6.149561882019043, 0.1198822408914566], "name" : "POSITION"}, {"bufferView" : 4, "byteOffset" : 12, "componentType" : 5126, "count" : 192, "type" : "VEC3", "max" : [0.9534994959831238, 0.6964054703712463, 0.9650313854217529], "min" : [-0.958710253238678, -0.7656705975532532, -0.9622949957847595], "name" : "NORMAL"}, {"bufferView" : 4, "byteOffset" : 24, "componentType" : 5126, "count" : 192, "type" : "VEC2", "max" : [0.9526312351226807, 0.9748824238777161], "min" : [0.8608418703079224, 0.9641851186752319], "name" : "TEXCOORD_0"}, {"bufferView" : 0, "byteOffset" : 3984, "componentType" : 5123, "count" : 216, "type" : "SCALAR", "max" : [143], "min" : [0]}, {"bufferView" : 5, "byteOffset" : 0, "componentType" : 5126, "count" : 144, "type" : "VEC3", "max" : [-3.4963765144348145, 6.473663330078125, 0.218621626496315], "min" : [-3.513824462890625, 6.340753078460693, 0.08770979940891266], "name" : "POSITION"}, {"bufferView" : 5, "byteOffset" : 12, "componentType" : 5126, "count" : 144, "type" : "VEC3", "max" : [1.0000044107437134, 0.717228353023529, 0.6900074481964111], "min" : [-1.0000044107437134, -0.8134655356407166, -0.8331292867660522], "name" : "NORMAL"}, {"bufferView" : 5, "byteOffset" : 24, "componentType" : 5126, "count" : 144, "type" : "VEC2", "max" : [0.24248570203781128, 0.9748660326004028], "min" : [0.20962822437286377, 0.9376732110977173], "name" : "TEXCOORD_0"}, {"bufferView" : 0, "byteOffset" : 4416, "componentType" : 5123, "count" : 288, "type" : "SCALAR", "max" : [191], "min" : [0]}, {"bufferView" : 6, "byteOffset" : 0, "componentType" : 5126, "count" : 192, "type" : "VEC3", "max" : [-2.7291905879974365, 6.402402400970459, 0.18644918501377106], "min" : [-2.881798267364502, 6.149561882019043, 0.1198822408914566], "name" : "POSITION"}, {"bufferView" : 6, "byteOffset" : 12, "componentType" : 5126, "count" : 192, "type" : "VEC3", "max" : [0.958710789680481, 0.6964008212089539, 0.9650313854217529], "min" : [-0.953500509262085, -0.76567542552948, -0.96229487657547], "name" : "NORMAL"}, {"bufferView" : 6, "byteOffset" : 24, "componentType" : 5126, "count" : 192, "type" : "VEC2", "max" : [0.31768256425857544, 0.9748716354370117], "min" : [0.2455219030380249, 0.9178231954574585], "name" : "TEXCOORD_0"}, {"bufferView" : 0, "byteOffset" : 4992, "componentType" : 5123, "count" : 216, "type" : "SCALAR", "max" : [143], "min" : [0]}, {"bufferView" : 7, "byteOffset" : 0, "componentType" : 5126, "count" : 144, "type" : "VEC3", "max" : [-2.8007805347442627, 6.473663330078125, 0.218621626496315], "min" : [-2.8182287216186523, 6.340753078460693, 0.08770979940891266], "name" : "POSITION"}, {"bufferView" : 7, "byteOffset" : 12, "componentType" : 5126, "count" : 144, "type" : "VEC3", "max" : [1.0000044107437134, 0.7172298431396484, 0.6900074481964111], "min" : [-1.0000044107437134, -0.8134665489196777, -0.833129346370697], "name" : "NORMAL"}, {"bufferView" : 7, "byteOffset" : 24, "componentType" : 5126, "count" : 144, "type" : "VEC2", "max" : [0.27451854944229126, 0.974872350692749], "min" : [0.22501125931739807, 0.9647097587585449], "name" : "TEXCOORD_0"}, {"bufferView" : 0, "byteOffset" : 5424, "componentType" : 5123, "count" : 1008, "type" : "SCALAR", "max" : [671], "min" : [0]}, {"bufferView" : 8, "byteOffset" : 0, "componentType" : 5126, "count" : 672, "type" : "VEC3", "max" : [-1.98092520236969, 4.062496185302734, 0.7849056720733643], "min" : [-4.663009166717529, 0.3264816999435425, -0.7849054336547852], "name" : "POSITION"}, {"bufferView" : 8, "byteOffset" : 12, "componentType" : 5126, "count" : 672, "type" : "VEC3", "max" : [0.9782922267913818, 0.9883367419242859, 0.9999960064888], "min" : [-0.9783327579498291, -0.9851114153862, -0.999913215637207], "name" : "NORMAL"}, {"bufferView" : 8, "byteOffset" : 24, "componentType" : 5126, "count" : 672, "type" : "VEC2", "max" : [0.9406817555427551, 0.9748846292495728], "min" : [0.025032252073287964, 0.025089621543884277], "name" : "TEXCOORD_0"}, {"bufferView" : 0, "byteOffset" : 7440, "componentType" : 5123, "count" : 432, "type" : "SCALAR", "max" : [287], "min" : [0]}, {"bufferView" : 9, "byteOffset" : 0, "componentType" : 5126, "count" : 288, "type" : "VEC3", "max" : [-3.0811266899108887, 7.837631702423096, 0.20549964904785156], "min" : [-3.531174898147583, 7.128174304962158, 0.17292499542236328], "name" : "POSITION"}, {"bufferView" : 9, "byteOffset" : 12, "componentType" : 5126, "count" : 288, "type" : "VEC3", "max" : [0.9237685799598694, 1.0000044107437134, 1.0000044107437134], "min" : [-0.9685994982719421, -0.9735564589500427, -1.0000044107437134], "name" : "NORMAL"}, {"bufferView" : 9, "byteOffset" : 24, "componentType" : 5126, "count" : 288, "type" : "VEC2", "max" : [0.5121605396270752, 0.9748656749725342], "min" : [0.09681957960128784, 0.7796305418014526], "name" : "TEXCOORD_0"}, {"bufferView" : 0, "byteOffset" : 8304, "componentType" : 5123, "count" : 5232, "type" : "SCALAR", "max" : [3487], "min" : [0]}, {"bufferView" : 10, "byteOffset" : 0, "componentType" : 5126, "count" : 3488, "type" : "VEC3", "max" : [-0.27578115463256836, 6.783075332641602, 0.6618988513946533], "min" : [-6.048244953155518, 0, -0.5192475318908691], "name" : "POSITION"}, {"bufferView" : 10, "byteOffset" : 12, "componentType" : 5126, "count" : 3488, "type" : "VEC3", "max" : [0.9993720650672913, 1.0000044107437134, 1.0000044107437134], "min" : [-0.9993721842765808, -1.0000044107437134, -1.0000044107437134], "name" : "NORMAL"}, {"bufferView" : 10, "byteOffset" : 24, "componentType" : 5126, "count" : 3488, "type" : "VEC2", "max" : [0.9714128971099854, 0.9749085903167725], "min" : [0.025032252073287964, 0.0464402437210083], "name" : "TEXCOORD_0"}, {"bufferView" : 0, "byteOffset" : 18768, "componentType" : 5123, "count" : 288, "type" : "SCALAR", "max" : [191], "min" : [0]}, {"bufferView" : 11, "byteOffset" : 0, "componentType" : 5126, "count" : 192, "type" : "VEC3", "max" : [-2.6977458000183105, 7.128174304962158, 0.6027989387512207], "min" : [-3.616868734359741, 6.643831253051758, -0.3164236545562744], "name" : "POSITION"}, {"bufferView" : 11, "byteOffset" : 12, "componentType" : 5126, "count" : 192, "type" : "VEC3", "max" : [0.9237685799598694, 0.8628959655761719, 1.0000044107437134], "min" : [-0.9242048263549805, -0.809609591960907, -1.0000044107437134], "name" : "NORMAL"}, {"bufferView" : 11, "byteOffset" : 24, "componentType" : 5126, "count" : 192, "type" : "VEC2", "max" : [0.4951478838920593, 0.9698173403739929], "min" : [0.09681957960128784, 0.7796305418014526], "name" : "TEXCOORD_0"}, {"bufferView" : 0, "byteOffset" : 19344, "componentType" : 5123, "count" : 960, "type" : "SCALAR", "max" : [639], "min" : [0]}, {"bufferView" : 12, "byteOffset" : 0, "componentType" : 5126, "count" : 640, "type" : "VEC3", "max" : [-1.450609564781189, 5.327633380889893, 0.2216625213623047], "min" : [-5.572756290435791, 0.3404632806777954, -0.5915141105651855], "name" : "POSITION"}, {"bufferView" : 12, "byteOffset" : 12, "componentType" : 5126, "count" : 640, "type" : "VEC3", "max" : [0.997241199016571, 1.0000044107437134, 1.0000044107437134], "min" : [-0.9685994982719421, -0.9971074461936951, -1.0000044107437134], "name" : "NORMAL"}, {"bufferView" : 12, "byteOffset" : 24, "componentType" : 5126, "count" : 640, "type" : "VEC2", "max" : [0.8662113547325134, 0.9749085903167725], "min" : [0.09681957960128784, 0.24071943759918213], "name" : "TEXCOORD_0"}, {"bufferView" : 0, "byteOffset" : 21264, "componentType" : 5123, "count" : 600, "type" : "SCALAR", "max" : [399], "min" : [0]}, {"bufferView" : 13, "byteOffset" : 0, "componentType" : 5126, "count" : 400, "type" : "VEC3", "max" : [-1.7636842727661133, 2.06817364692688, 0.21565556526184082], "min" : [-4.550930023193359, 0.5561822652816772, -0.6618988513946533], "name" : "POSITION"}, {"bufferView" : 13, "byteOffset" : 12, "componentType" : 5126, "count" : 400, "type" : "VEC3", "max" : [0.9237685799598694, 1.0000044107437134, 1.0000044107437134], "min" : [-0.9685994982719421, -0.9735564589500427, -1.0000044107437134], "name" : "NORMAL"}, {"bufferView" : 13, "byteOffset" : 24, "componentType" : 5126, "count" : 400, "type" : "VEC2", "max" : [0.8662113547325134, 0.9749085903167725], "min" : [0.09681957960128784, 0.714038610458374], "name" : "TEXCOORD_0"}], "asset" : {"generator" : "Aspose.3D 25.11.0", "version" : "2.0"}, "buffers" : [{"uri" : "data:application/octet-stream;base64,", "byteLength" : 262136}], "bufferViews" : [{"buffer" : 0, "byteOffset" : 0, "byteLength" : 22464, "target" : 34963}, {"buffer" : 0, "byteOffset" : 22468, "byteLength" : 8192, "byteStride" : 32, "target" : 34962}, {"buffer" : 0, "byteOffset" : 30664, "byteLength" : 21760, "byteStride" : 32, "target" : 34962}, {"buffer" : 0, "byteOffset" : 52428, "byteLength" : 6400, "byteStride" : 32, "target" : 34962}, {"buffer" : 0, "byteOffset" : 58832, "byteLength" : 6144, "byteStride" : 32, "target" : 34962}, {"buffer" : 0, "byteOffset" : 64980, "byteLength" : 4608, "byteStride" : 32, "target" : 34962}, {"buffer" : 0, "byteOffset" : 69592, "byteLength" : 6144, "byteStride" : 32, "target" : 34962}, {"buffer" : 0, "byteOffset" : 75740, "byteLength" : 4608, "byteStride" : 32, "target" : 34962}, {"buffer" : 0, "byteOffset" : 80352, "byteLength" : 21504, "byteStride" : 32, "target" : 34962}, {"buffer" : 0, "byteOffset" : 101860, "byteLength" : 9216, "byteStride" : 32, "target" : 34962}, {"buffer" : 0, "byteOffset" : 111080, "byteLength" : 111616, "byteStride" : 32, "target" : 34962}, {"buffer" : 0, "byteOffset" : 222700, "byteLength" : 6144, "byteStride" : 32, "target" : 34962}, {"buffer" : 0, "byteOffset" : 228848, "byteLength" : 20480, "byteStride" : 32, "target" : 34962}, {"buffer" : 0, "byteOffset" : 249332, "byteLength" : 12800, "byteStride" : 32, "target" : 34962}], "materials" : [{"name" : "Mochila", "pbrMetallicRoughness" : {"baseColorFactor" : [0, 0, 0, 1], "metallicFactor" : 1, "roughnessFactor" : 1}, "emissiveFactor" : [0, 0, 0], "alphaMode" : "OPAQUE", "doubleSided" : false}, {"name" : "Mascara2", "pbrMetallicRoughness" : {"baseColorFactor" : [0, 0, 0, 1], "metallicFactor" : 1, "roughnessFactor" : 1}, "emissiveFactor" : [0, 0, 0], "alphaMode" : "OPAQUE", "doubleSided" : false}, {"name" : "Cabello3", "pbrMetallicRoughness" : {"baseColorFactor" : [0, 0, 0, 1], "metallicFactor" : 1, "roughnessFactor" : 1}, "emissiveFactor" : [0, 0, 0], "alphaMode" : "OPAQUE", "doubleSided" : false}, {"name" : "Aretes", "pbrMetallicRoughness" : {"baseColorFactor" : [0, 0, 0, 1], "metallicFactor" : 1, "roughnessFactor" : 1}, "emissiveFactor" : [0, 0, 0], "alphaMode" : "OPAQUE", "doubleSided" : false}, {"name" : "Falda2", "pbrMetallicRoughness" : {"baseColorFactor" : [0, 0, 0, 1], "metallicFactor" : 1, "roughnessFactor" : 1}, "emissiveFactor" : [0, 0, 0], "alphaMode" : "OPAQUE", "doubleSided" : false}, {"name" : "Pluma", "pbrMetallicRoughness" : {"baseColorFactor" : [0, 0, 0, 1], "metallicFactor" : 1, "roughnessFactor" : 1}, "emissiveFactor" : [0, 0, 0], "alphaMode" : "OPAQUE", "doubleSided" : false}], "meshes" : [{"primitives" : [{"attributes" : {"POSITION" : 1, "NORMAL" : 2, "TEXCOORD_0" : 3}, "indices" : 0, "material" : 0, "mode" : 4}], "name" : ""}, {"primitives" : [{"attributes" : {"POSITION" : 5, "NORMAL" : 6, "TEXCOORD_0" : 7}, "indices" : 4, "material" : 1, "mode" : 4}], "name" : ""}, {"primitives" : [{"attributes" : {"POSITION" : 9, "NORMAL" : 10, "TEXCOORD_0" : 11}, "indices" : 8, "material" : 2, "mode" : 4}], "name" : ""}, {"primitives" : [{"attributes" : {"POSITION" : 13, "NORMAL" : 14, "TEXCOORD_0" : 15}, "indices" : 12, "material" : 3, "mode" : 4}], "name" : ""}, {"primitives" : [{"attributes" : {"POSITION" : 17, "NORMAL" : 18, "TEXCOORD_0" : 19}, "indices" : 16, "material" : 3, "mode" : 4}], "name" : ""}, {"primitives" : [{"attributes" : {"POSITION" : 21, "NORMAL" : 22, "TEXCOORD_0" : 23}, "indices" : 20, "material" : 3, "mode" : 4}], "name" : ""}, {"primitives" : [{"attributes" : {"POSITION" : 25, "NORMAL" : 26, "TEXCOORD_0" : 27}, "indices" : 24, "material" : 3, "mode" : 4}], "name" : ""}, {"primitives" : [{"attributes" : {"POSITION" : 29, "NORMAL" : 30, "TEXCOORD_0" : 31}, "indices" : 28, "material" : 4, "mode" : 4}], "name" : ""}, {"primitives" : [{"attributes" : {"POSITION" : 33, "NORMAL" : 34, "TEXCOORD_0" : 35}, "indices" : 32, "material" : 5, "mode" : 4}, {"attributes" : {"POSITION" : 37, "NORMAL" : 38, "TEXCOORD_0" : 39}, "indices" : 36, "material" : 5, "mode" : 4}, {"attributes" : {"POSITION" : 41, "NORMAL" : 42, "TEXCOORD_0" : 43}, "indices" : 40, "material" : 5, "mode" : 4}, {"attributes" : {"POSITION" : 45, "NORMAL" : 46, "TEXCOORD_0" : 47}, "indices" : 44, "material" : 5, "mode" : 4}, {"attributes" : {"POSITION" : 49, "NORMAL" : 50, "TEXCOORD_0" : 51}, "indices" : 48, "material" : 5, "mode" : 4}], "name" : ""}], "nodes" : [{"mesh" : 0, "name" : "pCylinder4"}, {"matrix" : [1, 0, 0, 0, 0, 1, 0, 0, 0, 0, 1, 0, 0.0069099724075813995, 0, -0.02855824341722968, 1], "mesh" : 1, "name" : "Mascara1"}, {"mesh" : 2, "name" : "Pelo"}, {"matrix" : [1, 0, 0, 0, 0, 1, 0, 0, 0, 0, 1, 0, -0.009701604321008084, 0, 0, 1], "mesh" : 3, "name" : "Arete_Oro_der"}, {"matrix" : [1, 0, 0, 0, 0, 1, 0, 0, 0, 0, 1, 0, -0.009701604321008084, 0, 0, 1], "mesh" : 4, "name" : "Arete_Aro_der"}, {"matrix" : [1, 0, 0, 0, 0, 1, 0, 0, 0, 0, 1, 0, 0.01440680806436978, 0, 0, 1], "mesh" : 5, "name" : "Arete_Oro_izq"}, {"matrix" : [1, 0, 0, 0, 0, 1, 0, 0, 0, 0, 1, 0, 0.01440680806436978, 0, 0, 1], "mesh" : 6, "name" : "Arete_Aro_izq"}, {"matrix" : [1, 0, 0, 0, 0, 1, 0, 0, 0, 0, 1, 0, 0, 0, -0.08735908716218854, 1], "mesh" : 7, "name" : "Falda1"}, {"mesh" : 8, "name" : "Cuerpo_Picaro"}, {"children" : [1, 2, 3, 4, 5, 6, 7, 8], "name" : "Picaro1"}], "scene" : 0, "scenes" : [{"nodes" : [0, 9]}]}