{
  "asset": {
    "version": "2.0",
    "generator": "THREE.GLTFExporter r180"
  },
  "scenes": [
    {
      "name": "AuxScene",
      "nodes": [
        0
      ]
    }
  ],
  "scene": 0,
  "nodes": [
    {
      "matrix": [
        1,
        0,
        0,
        0,
        0,
        1,
        0,
        0,
        0,
        0,
        1,
        0,
        0,
        -107.10800044983625,
        6.967350006103516,
        1
      ],
      "extras": {
        "unitScaleFactor": 1
      },
      "children": [
        1
      ]
    },
    {
      "name": "MonsterWolfmanwolfman",
      "extras": {
        "originalName": "MonsterWolfman:wolfman",
        "transformData": {
          "inheritType": 1,
          "eulerOrder": "ZYX",
          "parentMatrix": {
            "elements": [
              1,
              0,
              0,
              0,
              0,
              1,
              0,
              0,
              0,
              0,
              1,
              0,
              0,
              -107.10800044983625,
              6.967350006103516,
              1
            ]
          },
          "parentMatrixWorld": {
            "elements": [
              1,
              0,
              0,
              0,
              0,
              1,
              0,
              0,
              0,
              0,
              1,
              0,
              0,
              0,
              0,
              1
            ]
          }
        }
      },
      "mesh": 0
    }
  ],
  "bufferViews": [
    {
      "buffer": 0,
      "byteOffset": 0,
      "byteLength": 77472,
      "target": 34962,
      "byteStride": 12
    },
    {
      "buffer": 0,
      "byteOffset": 77472,
      "byteLength": 77472,
      "target": 34962,
      "byteStride": 12
    },
    {
      "buffer": 0,
      "byteOffset": 154944,
      "byteLength": 51648,
      "target": 34962,
      "byteStride": 8
    }
  ],
  "buffers": [
    {
      "byteLength": 206592,
      "uri": "data:application/octet-stream;base64,"
    }
  ],
  "accessors": [
    {
      "bufferView": 0,
      "componentType": 5126,
      "count": 6456,
      "max": [
        74.23379516601562,
        214.3553009033203,
        37.7953987121582
      ],
      "min": [
        -74.23379516601562,
        -0.13930000364780426,
        -51.730098724365234
      ],
      "type": "VEC3"
    },
    {
      "bufferView": 1,
      "componentType": 5126,
      "count": 6456,
      "max": [
        0.9996265172958374,
        0.9918889999389648,
        0.9999732971191406
      ],
      "min": [
        -0.9996265172958374,
        -0.9999985694885254,
        -0.9999680519104004
      ],
      "type": "VEC3"
    },
    {
      "bufferView": 2,
      "componentType": 5126,
      "count": 6456,
      "max": [
        0.9929999709129333,
        0.9939000010490417
      ],
      "min": [
        0.00699999975040555,
        0.019600000232458115
      ],
      "type": "VEC2"
    }
  ],
  "materials": [
    {
      "pbrMetallicRoughness": {
        "metallicFactor": 0,
        "roughnessFactor": 1
      },
      "name": "MonsterWolfman:standardSurface2"
    }
  ],
  "meshes": [
    {
      "primitives": [
        {
          "mode": 4,
          "attributes": {
            "POSITION": 0,
            "NORMAL": 1,
            "TEXCOORD_0": 2
          },
          "material": 0
        }
      ]
    }
  ]
}